<?xml version="1.0" encoding="UTF-8"?>
<svg width="1211px" height="334px" viewBox="0 0 1211 334" version="1.1" xmlns="http://www.w3.org/2000/svg" xmlns:xlink="http://www.w3.org/1999/xlink">
    <!-- Generator: Sketch 60.1 (88133) - https://sketch.com -->
    <title>Uova-black</title>
    <desc>Created with Sketch.</desc>
    <g id="Page-2" stroke="none" stroke-width="1" fill="none" fill-rule="evenodd">
        <g id="Artboard" transform="translate(-757.000000, -669.000000)" fill="#313c2b" fill-rule="nonzero">
            <g id="Uova-black" transform="translate(757.000000, 669.000000)">
                <path d="M32.5791855,0 L32.5791855,188.062076 C32.5791855,254.492746 71.8906364,298.647837 140.937854,298.647837 C213.738586,298.647837 252.462826,260.108417 253.230031,190.190401 L253.241657,188.062076 L253.241657,0 L285.820843,0 L285.820843,188.062076 C285.820843,277.216195 232.571261,331.227022 140.937854,331.227022 C53.8793208,331.227022 1.06349263,272.881505 0.0158819205,190.563852 L0,188.062076 L0,0 L32.5791855,0 Z" id="Path-3-Copy-72" transform="translate(142.910421, 165.613511) rotate(-360.000000) translate(-142.910421, -165.613511) "></path>
                <path d="M483.257919,92.3076923 C316.742081,92.3076923 316.742081,331.460337 483.257919,331.460337 C649.773756,331.460337 649.773756,92.3076923 483.257919,92.3076923 Z M483.257919,124.886878 C606.334842,124.886878 606.334842,298.881151 483.257919,298.881151 C360.180995,298.881151 360.180995,124.886878 483.257919,124.886878 Z" id="Path-4-Copy-53" transform="translate(483.257919, 211.884014) rotate(-360.000000) translate(-483.257919, -211.884014) "></path>
                <path d="M1085.39819,92.3076923 C1161.64374,92.3076923 1210.98261,146.082136 1210.2889,212.859123 L1210.28507,331.455034 L1177.70588,331.455034 L1177.70642,295.236181 C1155.86779,317.720786 1124.06233,331.460337 1085.39819,331.460337 C918.882353,331.460337 918.882353,92.3076923 1085.39819,92.3076923 Z M1085.39819,124.886878 C962.321267,124.886878 962.321267,298.881151 1085.39819,298.881151 C1140.58417,298.881151 1175.22612,263.949642 1177.58899,216.575412 C1177.65211,215.309797 1177.69183,214.050693 1177.70838,212.798551 L1177.70588,211.99802 L1177.7158,211.998192 C1177.97704,163.01551 1142.67111,124.886878 1085.39819,124.886878 Z" id="Combined-Shape"></path>
                <path d="M920.635846,95.0226244 L801.645891,324.390113 C795.757898,335.739867 779.773752,336.139468 773.258063,325.337727 L772.923981,324.75887 L646.152846,95.0226244 L683.362846,95.0226244 L786.741176,282.366516 L883.933846,95.0226244 L920.635846,95.0226244 Z" id="Combined-Shape-Copy-49" transform="translate(783.393665, 214.100518) rotate(-360.000000) translate(-783.393665, -214.100518) "></path>
            </g>
        </g>
    </g>
</svg>